<svg width="26" height="26" viewBox="0 0 26 26" fill="none" xmlns="http://www.w3.org/2000/svg">
<g clip-path="url(#clip0_3_467)">
<path d="M12.4427 10.1514C12.6214 9.61513 13.3787 9.61513 13.5574 10.1514L14.6056 13.299C14.8363 13.9909 15.225 14.6196 15.7408 15.1352C16.2567 15.6508 16.8856 16.0392 17.5777 16.2695L20.7237 17.3176C21.2599 17.4964 21.2599 18.2536 20.7237 18.4324L17.5761 19.4805C16.8841 19.7112 16.2555 20.0999 15.7398 20.6158C15.2242 21.1317 14.8359 21.7606 14.6056 22.4526L13.5574 25.5986C13.5189 25.7161 13.4443 25.8183 13.3442 25.8908C13.2441 25.9633 13.1236 26.0023 13.0001 26.0023C12.8765 26.0023 12.756 25.9633 12.656 25.8908C12.5559 25.8183 12.4812 25.7161 12.4427 25.5986L11.3946 22.451C11.164 21.7593 10.7756 21.1307 10.26 20.6151C9.74438 20.0995 9.11581 19.7111 8.42406 19.4805L5.27643 18.4324C5.15901 18.3938 5.05675 18.3192 4.98426 18.2191C4.91177 18.119 4.87273 17.9986 4.87273 17.875C4.87273 17.7514 4.91177 17.631 4.98426 17.5309C5.05675 17.4308 5.15901 17.3562 5.27643 17.3176L8.42406 16.2695C9.11581 16.039 9.74438 15.6505 10.26 15.1349C10.7756 14.6193 11.164 13.9908 11.3946 13.299L12.4427 10.1514ZM6.16531 1.86551C6.18861 1.79514 6.2335 1.7339 6.29359 1.69049C6.35368 1.64709 6.42593 1.62373 6.50006 1.62373C6.57419 1.62373 6.64643 1.64709 6.70653 1.69049C6.76662 1.7339 6.81151 1.79514 6.83481 1.86551L7.46368 3.75376C7.74481 4.59551 8.40456 5.25526 9.24631 5.53638L11.1346 6.16526C11.2049 6.18856 11.2662 6.23345 11.3096 6.29354C11.353 6.35364 11.3763 6.42588 11.3763 6.50001C11.3763 6.57414 11.353 6.64638 11.3096 6.70648C11.2662 6.76657 11.2049 6.81146 11.1346 6.83476L9.24631 7.46363C8.83116 7.60195 8.45393 7.83505 8.14452 8.14447C7.8351 8.45388 7.602 8.83111 7.46368 9.24626L6.83481 11.1345C6.81151 11.2049 6.76662 11.2661 6.70653 11.3095C6.64643 11.3529 6.57419 11.3763 6.50006 11.3763C6.42593 11.3763 6.35368 11.3529 6.29359 11.3095C6.2335 11.2661 6.18861 11.2049 6.16531 11.1345L5.53643 9.24626C5.39812 8.83111 5.16502 8.45388 4.8556 8.14447C4.54618 7.83505 4.16895 7.60195 3.75381 7.46363L1.86556 6.83476C1.79519 6.81146 1.73395 6.76657 1.69054 6.70648C1.64714 6.64638 1.62378 6.57414 1.62378 6.50001C1.62378 6.42588 1.64714 6.35364 1.69054 6.29354C1.73395 6.23345 1.79519 6.18856 1.86556 6.16526L3.75381 5.53638C4.16895 5.39807 4.54618 5.16497 4.8556 4.85555C5.16502 4.54613 5.39812 4.1689 5.53643 3.75376L6.16531 1.86551ZM17.6524 0.160883C17.6685 0.114613 17.6985 0.0744916 17.7384 0.0460958C17.7783 0.0177 17.8261 0.00244141 17.8751 0.00244141C17.924 0.00244141 17.9718 0.0177 18.0117 0.0460958C18.0516 0.0744916 18.0816 0.114613 18.0977 0.160883L18.5169 1.41863C18.7038 1.98088 19.1442 2.42126 19.7064 2.60813L20.9642 3.02738C21.0105 3.04342 21.0506 3.07348 21.079 3.11338C21.1074 3.15328 21.1226 3.20104 21.1226 3.25001C21.1226 3.29898 21.1074 3.34673 21.079 3.38663C21.0506 3.42653 21.0105 3.45659 20.9642 3.47263L19.7064 3.89188C19.4294 3.98406 19.1776 4.13956 18.9711 4.34604C18.7646 4.55253 18.6091 4.8043 18.5169 5.08138L18.0977 6.33913C18.0816 6.3854 18.0516 6.42553 18.0117 6.45392C17.9718 6.48232 17.924 6.49758 17.8751 6.49758C17.8261 6.49758 17.7783 6.48232 17.7384 6.45392C17.6985 6.42553 17.6685 6.3854 17.6524 6.33913L17.2332 5.08138C17.141 4.8043 16.9855 4.55253 16.779 4.34604C16.5725 4.13956 16.3208 3.98406 16.0437 3.89188L14.7876 3.47263C14.7413 3.45659 14.7012 3.42653 14.6728 3.38663C14.6444 3.34673 14.6291 3.29898 14.6291 3.25001C14.6291 3.20104 14.6444 3.15328 14.6728 3.11338C14.7012 3.07348 14.7413 3.04342 14.7876 3.02738L16.0453 2.60813C16.6076 2.42126 17.0479 1.98088 17.2348 1.41863L17.6524 0.162508V0.160883Z" fill="url(#paint0_linear_3_467)"/>
</g>
<defs>
<linearGradient id="paint0_linear_3_467" x1="11.3748" y1="0.00244141" x2="11.3748" y2="26.0023" gradientUnits="userSpaceOnUse">
<stop stop-color="#0AB2EA"/>
<stop offset="1" stop-color="#0489B5"/>
</linearGradient>
<clipPath id="clip0_3_467">
<rect width="26" height="26" fill="white"/>
</clipPath>
</defs>
</svg>
